<?xml version="1.0" encoding="iso-8859-1"?>
<!-- Generator: Adobe Illustrator 21.0.0, SVG Export Plug-In . SVG Version: 6.00 Build 0)  -->
<svg version="1.1" id="Capa_1" xmlns="http://www.w3.org/2000/svg" xmlns:xlink="http://www.w3.org/1999/xlink" x="0px" y="0px"
	 viewBox="0 0 609.677 609.677" style="enable-background:new 0 0 609.677 609.677;" xml:space="preserve">
<g>
	<g>
		<g id="filled_outline">
			<path style="fill:#FFB782;" d="M512.535,380.683c-13.87-8.332-31.845-4.308-40.838,9.145l-44.923,67.43V325.161
				c0-16.837-13.647-30.484-30.484-30.484c-16.837,0-30.484,13.647-30.484,30.484c0-16.837-13.647-30.484-30.484-30.484
				c-16.837,0-30.484,13.647-30.484,30.484c0-16.837-13.647-30.484-30.484-30.484s-30.484,13.647-30.484,30.484
				c0-16.837-13.647-30.484-30.484-30.484s-30.484,13.647-30.484,30.484v213.387c0,33.674,27.293,60.968,60.968,60.968l0,0h126.711
				c28.553,0,55.013-14.978,69.706-39.466l82.652-137.757C531.557,407.925,526.893,389.299,512.535,380.683z"/>
			<path style="fill:#F2A46F;" d="M315,538.548h-20.323c0.061-50.481,40.97-91.391,91.452-91.452h40.645v20.323h-40.645
				C346.866,467.46,315.041,499.285,315,538.548z"/>
			<rect x="182.903" y="375.968" style="fill:#F5AB76;" width="243.871" height="20.323"/>
			<rect x="233.71" y="325.161" style="fill:#F2A46F;" width="20.323" height="101.613"/>
			<rect x="294.677" y="325.161" style="fill:#F2A46F;" width="20.323" height="101.613"/>
			<rect x="355.645" y="325.161" style="fill:#F2A46F;" width="20.323" height="101.613"/>
			<rect x="10.161" y="10.161" style="fill:#4398D1;" width="589.355" height="142.258"/>
			<path style="fill:#126099;" d="M528.387,50.806H81.29c-16.837,0-30.484,13.647-30.484,30.484s13.647,30.484,30.484,30.484
				h447.097c16.837,0,30.484-13.647,30.484-30.484S545.224,50.806,528.387,50.806z"/>
			<rect x="91.452" y="132.097" style="fill:#628A27;" width="426.774" height="243.871"/>
			<rect x="91.452" y="91.452" style="fill:#6B962A;" width="426.774" height="243.871"/>
			<rect x="91.452" y="50.806" style="fill:#88B337;" width="426.774" height="243.871"/>
			<path style="fill:#6B962A;" d="M447.097,254.032H162.581c0-16.837-13.647-30.484-30.484-30.484l0,0V121.935l0,0
				c16.837,0,30.484-13.647,30.484-30.484h284.516c0,16.837,13.647,30.484,30.484,30.484l0,0v101.613l0,0
				C460.743,223.548,447.097,237.195,447.097,254.032z"/>
			<rect x="172.742" y="162.581" style="fill:#88B337;" width="20.323" height="20.323"/>
			<rect x="416.613" y="162.581" style="fill:#88B337;" width="20.323" height="20.323"/>
			<path style="fill:#DADDDF;" d="M91.452,447.097c-39.263-0.041-71.088-31.866-71.129-71.129h20.323
				c0.03,28.045,22.761,50.776,50.806,50.806V447.097z"/>
			<ellipse style="fill:#88B337;" cx="304.839" cy="172.742" rx="71.129" ry="81.29"/>
			<rect x="91.452" y="50.806" style="fill:#80A834;" width="426.774" height="40.645"/>
			<path d="M527.371,380.246c0.65-1.331,1.006-2.794,1.016-4.278V121.935c22.446,0,40.645-18.199,40.645-40.645
				s-18.199-40.645-40.645-40.645H81.29c-22.446,0-40.645,18.199-40.645,40.645s18.199,40.645,40.645,40.645v254.032
				c0,5.609,4.552,10.161,10.161,10.161h81.29v152.419c0.041,39.263,31.866,71.088,71.129,71.129h126.721
				c32.1-0.091,61.821-16.919,78.415-44.395l82.652-137.757C540.774,412.538,539.036,393.354,527.371,380.246z M436.935,386.129
				h25.048l-25.048,37.597V386.129z M101.613,304.839h406.452v20.323H101.613V304.839z M548.71,81.29
				c0,11.228-9.094,20.323-20.323,20.323V60.968C539.615,60.968,548.71,70.062,548.71,81.29z M508.065,60.968v223.548H101.613
				V60.968H508.065z M60.968,81.29c0-11.228,9.094-20.323,20.323-20.323v40.645C70.062,101.613,60.968,92.519,60.968,81.29z
				 M101.613,365.806v-20.323h406.452v20.323H101.613z M514.232,417.07L431.58,554.806c-12.895,21.369-36.012,34.467-60.968,34.548
				H243.871c-28.045-0.03-50.776-22.761-50.806-50.806V386.129h40.645v40.645h20.323v-40.645h40.645v40.645H315v-40.645h40.645
				v40.645h20.323v-40.645h40.645v60.968h-30.484c-50.481,0.061-91.391,40.97-91.452,91.452H315
				c0.041-39.263,31.866-71.088,71.129-71.129h40.645l0,0c3.394,0.01,6.564-1.677,8.454-4.491l44.923-67.39
				c6.178-9.267,18.697-11.777,27.964-5.609c8.962,5.975,11.655,17.935,6.117,27.171V417.07z"/>
			<path d="M599.516,0H10.161C4.552,0,0,4.552,0,10.161v142.258c0,5.609,4.552,10.161,10.161,10.161h50.806v-20.323H20.323V20.323
				h569.032v121.935H548.71v20.323h50.806c5.609,0,10.161-4.552,10.161-10.161V10.161C609.677,4.552,605.125,0,599.516,0z"/>
			<path d="M132.097,233.71c11.228,0,20.323,9.094,20.323,20.323c0,5.609,4.552,10.161,10.161,10.161h284.516
				c5.609,0,10.161-4.552,10.161-10.161c0-11.228,9.094-20.323,20.323-20.323c5.609,0,10.161-4.552,10.161-10.161V121.935
				c0-5.609-4.552-10.161-10.161-10.161c-11.228,0-20.323-9.094-20.323-20.323c0-5.609-4.552-10.161-10.161-10.161H162.581
				c-5.609,0-10.161,4.552-10.161,10.161c0,11.228-9.094,20.323-20.323,20.323c-5.609,0-10.161,4.552-10.161,10.161v101.613
				C121.935,229.157,126.488,233.71,132.097,233.71z M243.871,172.742c0-39.223,27.344-71.129,60.968-71.129
				s60.968,31.906,60.968,71.129s-27.344,71.129-60.968,71.129S243.871,211.965,243.871,172.742z M438.216,101.613
				c3.729,14.307,14.896,25.474,29.204,29.204v83.851c-14.307,3.729-25.474,14.896-29.204,29.204h-82.398
				c19.632-18.412,30.636-44.222,30.311-71.129c0.325-26.907-10.68-52.717-30.311-71.129H438.216z M142.258,130.816
				c14.307-3.729,25.474-14.896,29.204-29.204h82.398c-19.632,18.412-30.636,44.222-30.311,71.129
				c-0.325,26.907,10.68,52.717,30.311,71.129h-82.398c-3.729-14.307-14.896-25.474-29.204-29.204V130.816z"/>
			<rect x="172.742" y="162.581" width="20.323" height="20.323"/>
			<rect x="416.613" y="162.581" width="20.323" height="20.323"/>
			<path d="M40.645,375.968H20.323c0.041,39.263,31.866,71.088,71.129,71.129v-20.323C63.406,426.744,40.676,404.013,40.645,375.968
				z"/>
		</g>
	</g>
</g>
<g>
</g>
<g>
</g>
<g>
</g>
<g>
</g>
<g>
</g>
<g>
</g>
<g>
</g>
<g>
</g>
<g>
</g>
<g>
</g>
<g>
</g>
<g>
</g>
<g>
</g>
<g>
</g>
<g>
</g>
</svg>
