<svg height="496pt" viewBox="0 0 496 496" width="496pt" xmlns="http://www.w3.org/2000/svg"><path d="m304 80h192v80h-192zm0 0" fill="#f0bc5e"/><path d="m392 432c-21.351562 0-41.496094-5.089844-59.496094-13.894531l-10.257812-37.617188c-3.652344-13.398437-6.390625-27.746093-8.140625-42.632812l-15.890625 1.855469c1.839844 15.6875 4.738281 30.824218 8.59375 44.976562l5.878906 21.550781c-28.824219-20.789062-49.128906-52.535156-54.871094-89.125l8.535156 8.535157 11.3125-11.3125-29.664062-29.648438-29.65625 29.65625 11.3125 11.3125 11.527344-11.527344c5.929687 49.582032 35.738281 91.902344 77.640625 115.023438.734375 3.105468 1.175781 6.273437 1.175781 9.464844 0 22.824218-18.566406 41.382812-41.382812 41.382812h-221.234376c-22.816406 0-41.382812-18.558594-41.382812-41.382812 0-3.679688.496094-7.34375 1.464844-10.898438l11.734375-43.023438c7.160156-26.296874 10.800781-53.449218 10.800781-80.695312 0-70.574219 57.425781-128 128-128 58.414062 0 109.34375 39.558594 123.847656 96.214844l15.503906-3.96875c-11.085937-43.308594-41.128906-77.695313-79.847656-95.316406 7.40625-4.089844 12.496094-11.882813 12.496094-20.929688 0-7.816406-3.808594-14.695312-9.609375-19.078125l41.609375-41.609375v-24.257812l-29.273438-14.628907 7.585938-15.160156-34.3125-22.882813-22.144531 14.769532-21.855469-29.152344h-20v40h-45.769531l-5.726563 17.183594-9.191406-9.183594h-43.3125v35.3125l53.535156 53.535156c-3.40625 4.152344-5.535156 9.375-5.535156 15.152344 0 9.078125 5.128906 16.902344 12.59375 20.984375-49.816406 22.679687-84.59375 72.816406-84.59375 131.015625 0 25.832031-3.449219 51.558594-10.238281 76.496094l-11.738281 43.015625c-1.34375 4.921875-2.023438 10-2.023438 15.105469 0 31.640624 25.742188 57.382812 57.382812 57.382812h221.226563c31.648437 0 57.390625-25.742188 57.390625-57.382812 0-.496094-.089844-.984376-.097656-1.480469 17.378906 6.933593 36.273437 10.863281 56.097656 10.863281zm-328-368h20.6875l22.808594 22.816406 10.273437-30.816406h34.230469v40h16v-74.664062l22.144531 29.511718 25.855469-17.230468 13.6875 9.125-20.839844 41.683593 14.3125 7.160157 12.425782-24.851563 20.414062 10.210937v7.742188l-43.3125 43.3125h-19.625l6.875-55.007812-15.875-1.984376-7.125 56.992188h-34l-7.015625-49.136719-15.832031 2.265625 6.6875 46.871094h-6.777344c-1.457031 0-2.871094.183594-4.257812.433594l-51.742188-51.746094zm56 96c-4.40625 0-8-3.585938-8-8s3.59375-8 8-8h96c4.40625 0 8 3.585938 8 8s-3.59375 8-8 8zm0 0"/><path d="m168 208v-16c-5.753906 0-11.542969.449219-17.214844 1.320312l2.4375 15.816407c4.875-.753907 9.839844-1.136719 14.777344-1.136719zm0 0"/><path d="m56 304c0 28.65625-3.824219 57.222656-11.367188 84.910156l15.4375 4.203125c7.914063-29.050781 11.929688-59.035156 11.929688-89.113281 0-41.761719 26.710938-78.472656 66.464844-91.351562l-4.929688-15.214844c-46.375 15.023437-77.535156 57.847656-77.535156 106.566406zm0 0"/><path d="m408 432h16v16h-16zm0 0"/><path d="m440 432h16v16h-16zm0 0"/><path d="m480 80h16v16h-16zm0 0"/><path d="m392 400c-57.34375 0-104-46.65625-104-104s46.65625-104 104-104 104 46.65625 104 104-46.65625 104-104 104zm0 0" fill="#f0bc5e"/><path d="m448 80h16v16h-16zm0 0"/><path d="m304 80h128v16h-128zm0 0"/><path d="m480 112h16v16h-16zm0 0"/><path d="m448 112h16v16h-16zm0 0"/><path d="m304 112h128v16h-128zm0 0"/><path d="m480 144h16v16h-16zm0 0"/><path d="m392 288c-4.40625 0-8-3.585938-8-8s3.59375-8 8-8 8 3.585938 8 8h16c0-10.414062-6.710938-19.214844-16-22.527344v-9.472656h-16v9.472656c-9.289062 3.3125-16 12.113282-16 22.527344 0 13.230469 10.769531 24 24 24 4.40625 0 8 3.585938 8 8s-3.59375 8-8 8-8-3.585938-8-8h-16c0 10.414062 6.710938 19.214844 16 22.527344v9.472656h16v-9.472656c9.289062-3.3125 16-12.113282 16-22.527344 0-13.230469-10.769531-24-24-24zm0 0"/><path d="m448.832031 340.113281-12.632812-9.816406c7.722656-9.9375 11.800781-21.800781 11.800781-34.296875 0-30.871094-25.121094-56-56-56-12.496094 0-24.351562 4.078125-34.289062 11.808594l-9.824219-12.640625c12.777343-9.929688 28.023437-15.167969 44.113281-15.167969 39.695312 0 72 32.296875 72 72 0 16.097656-5.246094 31.34375-15.167969 44.113281zm0 0"/><path d="m392 368c-39.695312 0-72-32.296875-72-72 0-16.097656 5.246094-31.351562 15.167969-44.121094l12.632812 9.832032c-7.722656 9.929687-11.800781 21.792968-11.800781 34.289062 0 30.871094 25.121094 56 56 56 12.496094 0 24.359375-4.078125 34.296875-11.808594l9.816406 12.640625c-12.777343 9.929688-28.023437 15.167969-44.113281 15.167969zm0 0"/><path d="m448 144h16v16h-16zm0 0"/><path d="m304 144h128v16h-128zm0 0"/></svg>